<svg width="132" height="107" viewBox="0 0 132 107" fill="none" xmlns="http://www.w3.org/2000/svg">
<g clip-path="url(#clip0_116_8)">
<path d="M18.8959 42.2969L19.0402 58.4653C19.0431 58.8149 19.1959 59.0771 19.4986 59.2519L24.0019 61.8445" stroke="#EC957F" stroke-width="2"/>
<path d="M24.0019 61.8444C23.8321 63.5657 25.08 63.6545 26.0095 64.3735C26.8697 65.0389 27.7582 65.662 28.675 66.2428C29.8761 67.0083 31.6927 68.4716 33.4838 69.1991C34.6553 69.6727 35.258 70.2268 36.0644 71.0811C36.1295 71.1488 36.1918 71.1473 36.2512 71.0769L36.8411 70.379C36.9543 70.2437 37.0887 70.2183 37.2444 70.3029C40.2777 71.9382 43.3789 73.4354 46.548 74.7944C47.7492 75.3146 48.8697 76.7018 50.2194 77.3996C51.6512 78.1411 53.0009 79.0109 54.2685 80.009C54.3647 80.0851 54.4737 80.1331 54.5954 80.1528C54.9321 80.2008 55.1344 80.3911 55.2023 80.7238C55.2142 80.7785 55.239 80.8294 55.2745 80.8722C55.3099 80.9149 55.3551 80.9481 55.406 80.9691C58.1436 82.0814 60.2828 85.6593 63.8311 84.1114C66.7385 82.8384 69.4889 80.8041 71.9379 79.5776C73.4489 78.822 74.9655 78.0763 76.4878 77.3404C80.5539 75.3738 84.0598 72.2357 88.3551 70.3875C89.3228 69.9688 90.473 68.2475 91.8991 68.0656C92.0265 68.0515 92.1439 68.0092 92.2514 67.9387L107.022 58.5456C107.127 58.4779 107.206 58.3877 107.26 58.2749C108.27 56.1053 108.486 52.8403 108.622 50.455C108.694 49.1693 108.274 47.5918 108.546 46.1243C108.732 45.1262 108.713 44.1788 108.486 43.2822C108.45 43.15 108.375 43.0307 108.27 42.9397C107.893 42.6154 107.646 42.184 107.527 41.6455" stroke="#DF4B23" stroke-width="2"/>
<path d="M107.527 41.6453L107.578 40.4907" stroke="#EC957F" stroke-width="2"/>
<path d="M107.578 40.4909C107.343 39.9299 107.301 39.3434 107.451 38.7316C107.484 38.5962 107.445 38.4877 107.332 38.4059C106.503 37.7969 105.894 37.0117 105.507 36.0502C105.46 35.9347 105.378 35.837 105.273 35.7711C101.442 33.3717 97.5795 31.0273 93.686 28.7379C91.2964 27.3337 88.1641 26.103 85.5411 24.4917C80.711 21.5228 75.5031 19.4631 70.6561 16.4942C69.1196 15.5553 67.5364 15.052 65.9108 14.3584C65.011 13.9735 64.1876 13.9609 63.2454 13.7579C63.1067 13.7297 62.9723 13.7395 62.8422 13.7875C59.806 14.8955 57.3146 16.1431 55.3678 17.5303C54.0323 18.4805 52.8325 19.2333 51.7686 19.7888C50.6481 20.3809 49.7865 21.1929 48.6957 21.8273C47.677 22.4194 46.906 22.9128 46.3825 23.3075C42.8851 25.9508 38.5601 27.8624 35.3471 29.8205C29.8846 33.149 25.0291 36.6677 19.1294 40.0934C18.2748 40.5896 18.1461 41.2762 18.7431 42.153C18.7488 42.1643 18.753 42.1643 18.7559 42.153L18.7983 42.0262C18.8096 41.9951 18.828 41.9909 18.8535 42.0135C18.8931 42.0501 18.9073 42.1446 18.8959 42.2968" stroke="#DF4B23" stroke-width="2"/>
<path d="M107.578 40.4907C107.431 40.5133 107.288 40.5006 107.149 40.4526" stroke="#E49E8D" stroke-width="2"/>
<path d="M107.149 40.453L107.217 40.195C107.254 40.0569 107.216 39.9427 107.103 39.8525C102.988 36.5113 99.1245 33.7652 95.5111 31.6139C85.8891 25.8832 74.8325 20.5332 64.3447 14.6546C64.2365 14.5941 64.1141 14.563 63.9897 14.5645C63.8653 14.566 63.7433 14.6 63.6359 14.663C48.8372 23.4965 34.1049 32.5359 19.4392 41.781C19.3204 41.8543 19.2779 41.9868 19.3119 42.1785" stroke="#7A3524" stroke-width="2"/>
<path d="M19.3119 42.1786C19.1619 42.1645 19.0233 42.2039 18.8959 42.297" stroke="#E49E8D" stroke-width="2"/>
<path d="M107.527 41.6455L106.593 56.9258C106.581 57.1019 106.527 57.2724 106.434 57.4227C106.342 57.573 106.214 57.6985 106.063 57.7885L62.804 83.477C62.6961 83.5413 62.5721 83.5735 62.4465 83.5697C62.3209 83.566 62.199 83.5265 62.0952 83.4559C56.2323 79.4973 50.1784 75.7488 43.9335 72.2103C41.8877 71.0472 39.0312 69.9307 36.786 68.7254C32.519 66.436 28.2576 64.1423 24.0019 61.8444" stroke="#E49E8D" stroke-width="2"/>
<path d="M107.149 40.4526L63.0968 66.361C63.0328 66.3991 62.9597 66.4189 62.8855 66.4181C62.8113 66.4174 62.739 66.3961 62.6766 66.3568C58.2158 63.5528 53.8568 60.7446 49.0607 58.4523C44.2136 56.1347 39.3581 54.0201 34.7275 51.2161C29.6285 48.1287 24.49 45.1161 19.3119 42.1782" stroke="#877E81" stroke-width="2"/>
<path d="M107.578 40.4909C107.431 40.5135 107.288 40.5008 107.149 40.4529L107.217 40.1949C107.254 40.0567 107.216 39.9425 107.103 39.8523C102.988 36.5112 99.1245 33.765 95.5111 31.6137C85.8891 25.8831 74.8326 20.5331 64.3447 14.6545C64.2365 14.5939 64.1141 14.5629 63.9897 14.5644C63.8654 14.5659 63.7433 14.5998 63.6359 14.6629C48.8372 23.4964 34.105 32.5357 19.4392 41.7809C19.3204 41.8542 19.278 41.9867 19.3119 42.1784C19.1619 42.1643 19.0233 42.2038 18.896 42.2968C18.9073 42.1446 18.8931 42.0501 18.8535 42.0135C18.8281 41.9909 18.8097 41.9951 18.7983 42.0262L18.7559 42.153C18.7531 42.1643 18.7488 42.1643 18.7432 42.153C18.1461 41.2762 18.2749 40.5896 19.1294 40.0934C25.0291 36.6677 29.8846 33.149 35.3472 29.8205C38.5601 27.8624 42.8852 25.9508 46.3825 23.3075C46.906 22.9128 47.6771 22.4194 48.6957 21.8273C49.7865 21.1929 50.6481 20.3809 51.7686 19.7888C52.8326 19.2333 54.0323 18.4805 55.3679 17.5303C57.3146 16.1431 59.8061 14.8955 62.8422 13.7875C62.9724 13.7395 63.1068 13.7297 63.2454 13.7579C64.1877 13.9609 65.0111 13.9735 65.9109 14.3584C67.5365 15.052 69.1196 15.5553 70.6561 16.4942C75.5032 19.4631 80.711 21.5228 85.5411 24.4917C88.1641 26.103 91.2965 27.3337 93.6861 28.7379C97.5796 31.0273 101.442 33.3717 105.273 35.7711C105.378 35.837 105.46 35.9347 105.507 36.0502C105.894 37.0117 106.503 37.7969 107.332 38.4059C107.445 38.4877 107.485 38.5962 107.451 38.7316C107.301 39.3434 107.343 39.9299 107.578 40.4909Z" fill="#D65430"/>
<path d="M107.527 41.6455C107.646 42.184 107.893 42.6154 108.27 42.9397C108.375 43.0307 108.45 43.15 108.486 43.2822C108.713 44.1788 108.732 45.1262 108.546 46.1243C108.274 47.5918 108.694 49.1693 108.622 50.455C108.486 52.8403 108.27 56.1053 107.26 58.2749C107.206 58.3877 107.127 58.4779 107.022 58.5456L92.2515 67.9387C92.1439 68.0092 92.0265 68.0515 91.8992 68.0656C90.4731 68.2475 89.3228 69.9688 88.3551 70.3875C84.0598 72.2357 80.554 75.3738 76.4879 77.3404C74.9655 78.0763 73.4489 78.822 71.9379 79.5776C69.4889 80.8041 66.7385 82.8384 63.8311 84.1114C60.2828 85.6593 58.1437 82.0814 55.4061 80.9691C55.3551 80.9481 55.31 80.9149 55.2745 80.8722C55.239 80.8294 55.2142 80.7785 55.2023 80.7238C55.1344 80.3911 54.9321 80.2008 54.5954 80.1528C54.4737 80.1331 54.3648 80.0851 54.2686 80.009C53.0009 79.0109 51.6512 78.1411 50.2194 77.3996C48.8697 76.7018 47.7492 75.3146 46.548 74.7944C43.3789 73.4354 40.2777 71.9382 37.2444 70.3029C37.0888 70.2183 36.9544 70.2437 36.8412 70.379L36.2512 71.0769C36.1918 71.1473 36.1295 71.1488 36.0644 71.0811C35.258 70.2268 34.6553 69.6727 33.4839 69.1991C31.6927 68.4716 29.8762 67.0083 28.675 66.2428C27.7582 65.662 26.8697 65.0389 26.0095 64.3735C25.08 63.6545 23.8322 63.5657 24.0019 61.8444C28.2576 64.1423 32.519 66.436 36.786 68.7254C39.0313 69.9307 41.8877 71.0472 43.9335 72.2103C50.1784 75.7488 56.2323 79.4973 62.0952 83.4559C62.199 83.5265 62.3209 83.566 62.4465 83.5697C62.5721 83.5735 62.6962 83.5413 62.804 83.477L106.063 57.7886C106.214 57.6985 106.342 57.573 106.434 57.4227C106.527 57.2724 106.581 57.1019 106.593 56.9258L107.527 41.6455Z" fill="#D65430"/>
<path d="M73.3802 65.674L72.4742 66.2554C72.347 65.5837 72.0356 65.4069 71.5399 65.7251C71.2208 65.9299 70.986 66.1756 70.8355 66.4623C70.6851 66.7489 70.6217 67.073 70.6454 67.4344C70.6631 67.7047 70.7694 67.9004 70.9644 68.0217L73.0648 69.3561C73.4519 69.6005 73.6633 69.9946 73.6989 70.5385L73.7348 71.0858C73.7731 71.6702 73.6282 72.2912 73.3001 72.9488C72.9719 73.603 72.557 74.0911 72.0556 74.4129L71.141 74.9998C70.537 75.3875 70.0707 75.4984 69.7422 75.3326C69.4137 75.1668 69.2259 74.7258 69.179 74.0096L70.0936 73.4227C70.0928 73.5006 70.0938 73.5616 70.0967 73.6055C70.1159 73.8994 70.226 74.0611 70.4268 74.0906C70.6277 74.1201 70.8421 74.0617 71.07 73.9155C71.3948 73.707 71.6223 73.4642 71.7526 73.1869C71.8829 72.9097 71.9364 72.5937 71.9132 72.239C71.8953 71.9654 71.7889 71.7696 71.5941 71.6517L69.4945 70.3275C69.1076 70.0865 68.8962 69.6923 68.8603 69.1451L68.8245 68.5978C68.786 68.01 68.9308 67.389 69.2591 66.7348C69.5873 66.0806 70.0022 65.5925 70.5036 65.2707L71.4182 64.6837C72.5578 63.9523 73.2118 64.2824 73.3802 65.674ZM75.2136 64.4973L77.0342 63.3289L77.1052 64.4133C77.0813 64.0484 77.1405 63.7271 77.2826 63.4493C77.4247 63.1715 77.6468 62.9357 77.9488 62.7419L78.8633 62.1549C79.3619 61.8349 79.8034 61.7752 80.1876 61.9756C80.5745 62.1709 80.7873 62.5641 80.826 63.1553L81.0385 66.3983C81.0772 66.9895 80.931 67.6131 80.5999 68.2692C80.2714 68.92 79.8579 69.4054 79.3593 69.7254L77.5302 70.8993L77.6716 73.058L75.851 74.2264L75.2136 64.4973ZM77.4591 69.815L78.3737 69.228C78.6216 69.0689 78.8284 68.827 78.9942 68.5024C79.1626 68.1725 79.2371 67.8607 79.2179 67.5668L79.0054 64.3237C78.986 64.0264 78.8782 63.8316 78.6821 63.7392C78.4887 63.6415 78.268 63.6723 78.0201 63.8314C77.7692 63.9889 77.561 64.2317 77.3954 64.5597C77.2299 64.8877 77.1568 65.2004 77.1763 65.4976L77.4591 69.815ZM86.3624 60.7215L86.2921 59.6472C86.2726 59.3499 86.1647 59.1534 85.9684 59.0576C85.775 58.96 85.5543 58.9907 85.3064 59.1498L84.3919 59.7368C83.8534 60.0824 83.5751 60.6376 83.5569 61.4026L82.6423 61.9896C82.6872 60.4541 83.2467 59.3417 84.3208 58.6524L86.15 57.4784C86.6486 57.1584 87.09 57.0987 87.4742 57.2991C87.8611 57.4944 88.0739 57.8876 88.1126 58.4788L88.4665 63.8805L86.6459 65.0489L86.5749 63.9645C86.551 64.7332 86.2699 65.2903 85.7314 65.6359L84.8168 66.2229C84.3182 66.5428 83.8756 66.6069 83.4889 66.415C83.1049 66.2179 82.8935 65.8238 82.8548 65.2326L82.8541 65.2225C82.8154 64.6313 82.9617 64.0094 83.293 63.3567C83.6241 62.7007 84.0375 62.2136 84.5333 61.8954L86.3624 60.7215ZM86.4335 61.8059L85.5189 62.3928C85.2682 62.5538 85.06 62.7982 84.8945 63.1262C84.7287 63.4509 84.6555 63.7602 84.6747 64.0541L84.6754 64.0642C84.6944 64.3547 84.7992 64.5497 84.9898 64.6492C85.1833 64.7468 85.4068 64.7142 85.6603 64.5515C85.9139 64.3888 86.122 64.1443 86.2847 63.8181C86.4503 63.4901 86.5236 63.1808 86.5045 62.8903L86.4335 61.8059ZM94.4847 54.3893L93.5787 54.9707C93.4601 54.2935 93.1315 54.1277 92.5931 54.4733C92.3423 54.6342 92.1342 54.8787 91.9687 55.2067C91.8031 55.5347 91.7301 55.8474 91.7495 56.1447L91.962 59.3877C91.981 59.6782 92.0859 59.8732 92.2764 59.9727C92.4699 60.0703 92.6934 60.0377 92.947 59.875C93.4854 59.5294 93.7668 58.9757 93.7911 58.2138L94.6972 57.6323C94.7174 59.1189 94.1576 60.228 93.018 60.9594L92.1034 61.5464C91.6048 61.8664 91.1622 61.9304 90.7756 61.7385C90.3915 61.5415 90.1802 61.1473 90.1414 60.5561L89.929 57.3131C89.8898 56.7152 90.0359 56.0899 90.3672 55.4372C90.6983 54.7811 91.1117 54.294 91.6075 53.9759L92.522 53.3889C93.6674 52.6538 94.3216 52.9873 94.4847 54.3893ZM101.93 51.8604L98.2801 54.2028L98.3512 55.2872C98.3702 55.5777 98.475 55.7727 98.6656 55.8722C98.859 55.9698 99.0825 55.9372 99.3361 55.7745L100.251 55.1875C100.855 54.7999 101.133 54.248 101.086 53.5318L102.001 52.9448C101.953 54.4754 101.393 55.5844 100.322 56.2719L98.4926 57.4459C97.994 57.7659 97.5514 57.8299 97.1647 57.638C96.7807 57.441 96.5693 57.0468 96.5306 56.4556L96.3181 53.2126C96.2789 52.6147 96.425 51.9894 96.7563 51.3367C97.0874 50.6806 97.5009 50.1935 97.9966 49.8754L99.8257 48.7014C100.324 48.3814 100.766 48.3217 101.15 48.5221C101.537 48.7174 101.75 49.1106 101.788 49.7018L101.93 51.8604ZM98.2091 53.1184L100.038 51.9445L99.9678 50.8702C99.9483 50.573 99.8405 50.3764 99.6442 50.2806C99.4507 50.183 99.2301 50.2137 98.9822 50.3728C98.7315 50.5337 98.5234 50.7782 98.3578 51.1062C98.1923 51.4342 98.1192 51.7469 98.1387 52.0442L98.2091 53.1184Z" fill="black"/>
<path d="M51.4942 32.7301C51.8897 33.0268 52.2233 33.3368 52.495 33.66C52.7666 33.9832 52.9517 34.319 53.0503 34.6674C53.1488 35.0158 53.1524 35.3825 53.0612 35.7674C52.9783 36.1468 52.7798 36.5468 52.4659 36.9675C52.7824 37.1334 53.0617 37.1342 53.3038 36.9698C53.4958 36.8394 53.6693 36.6236 53.8243 36.3222C53.9874 36.0269 54.0574 35.6737 54.0343 35.2626C54.0192 34.8575 53.8655 34.4081 53.5733 33.9143C53.2975 33.4209 52.8165 32.9168 52.1304 32.402C51.743 32.1113 51.3747 31.8826 51.0254 31.7159C50.6841 31.5553 50.3831 31.4309 50.1224 31.3426C49.9901 31.0286 49.9279 30.7075 49.9357 30.3792C49.9518 30.0452 50.0294 29.7156 50.1686 29.3904C50.3158 29.0713 50.5203 28.7594 50.7822 28.4547C51.0521 28.1561 51.3708 27.8821 51.7381 27.6327C52.7651 26.9355 53.8598 26.4981 55.0223 26.3203C56.1847 26.1425 57.3386 26.1552 58.4839 26.3583C59.6456 26.5617 60.7668 26.9138 61.8475 27.4145C62.9282 27.9152 63.9044 28.4926 64.7761 29.1468C65.559 29.7343 66.2192 30.3013 66.7566 30.8478C67.2941 31.3943 67.7295 31.912 68.063 32.4009C68.4048 32.8841 68.657 33.3358 68.8195 33.7561C68.9985 34.1768 69.1128 34.5549 69.1623 34.8905C68.9839 35.1385 68.7603 35.3883 68.4915 35.64C68.2227 35.8918 67.9171 36.1338 67.5748 36.3662C67.3494 36.5193 67.0913 36.6656 66.8004 36.8054C66.526 36.9455 66.2356 37.0677 65.9292 37.1719C65.6228 37.2761 65.3087 37.3567 64.987 37.4136C64.6653 37.4705 64.3526 37.4924 64.049 37.4793C64.0117 37.3201 63.9222 37.1097 63.7805 36.8483C63.6472 36.5812 63.465 36.2953 63.234 35.9907C63.0194 35.6865 62.7598 35.3724 62.4553 35.0484C62.1509 34.7245 61.813 34.4232 61.4417 34.1446C60.9332 33.763 60.5405 33.522 60.2636 33.4216C59.9947 33.3272 59.781 33.3339 59.6223 33.4416C59.5388 33.4983 59.48 33.5556 59.4458 33.6134C59.6489 33.7062 59.8557 33.8196 60.0661 33.9536C60.2765 34.0877 60.4705 34.2213 60.6481 34.3545C61.3422 34.8754 61.9324 35.4496 62.4187 36.077C62.9133 36.6987 63.2142 37.3481 63.3214 38.0252C63.445 38.7027 63.3301 39.3921 62.9767 40.0935C62.6232 40.7949 61.954 41.48 60.9688 42.1488C60.1923 42.6759 59.2962 43.0536 58.2804 43.2817C57.2646 43.5099 56.1789 43.5663 55.0233 43.451C53.8758 43.3417 52.6835 43.0437 51.4464 42.5568C50.2174 42.0761 48.9975 41.3815 47.7868 40.4729C47.1653 40.0066 46.6092 39.5535 46.1185 39.1137C45.6195 38.6795 45.1781 38.2409 44.7942 37.7977C44.4021 37.3603 44.0635 36.9153 43.7785 36.4627C43.5018 36.0045 43.2626 35.5267 43.0608 35.0292C43.1951 34.5572 43.403 34.1046 43.6844 33.6714C43.9657 33.2381 44.3944 32.8259 44.9705 32.4348C45.4213 32.1288 45.9237 31.9031 46.4775 31.7578C47.0394 31.6186 47.6076 31.5617 48.182 31.587C48.7648 31.6067 49.3414 31.7113 49.912 31.9007C50.4825 32.0902 51.01 32.3667 51.4942 32.7301Z" fill="black"/>
<path d="M105.919 39.9614L62.3324 65.9427C62.2691 65.9809 62.1967 66.0007 62.1233 66C62.0499 65.9992 61.9784 65.9779 61.9167 65.9385C57.503 63.1266 53.1901 60.3105 48.4447 58.0118C43.649 55.6876 38.8447 53.567 34.2631 50.7552C29.2181 47.6591 24.1339 44.638 19.0106 41.6918C18.977 41.4995 19.019 41.3667 19.1366 41.2931C33.6471 32.022 48.2236 22.9572 62.8657 14.0989C62.9721 14.0356 63.0928 14.0015 63.2158 14.0001C63.3389 13.9986 63.46 14.0297 63.5671 14.0904C73.9439 19.9856 84.8837 25.3506 94.4038 31.0974C97.979 33.2547 101.802 36.0087 105.873 39.3592C105.985 39.4497 106.022 39.5642 105.986 39.7027L105.919 39.9614ZM78.1813 46.9212C82.4353 46.7261 89.1545 45.2968 90.4941 40.4025C91.355 37.2471 89.524 34.4098 87.038 32.5861C80.9067 28.0904 73.5828 24.5194 66.6411 21.487C63.819 20.2528 59.6531 20.7151 57.1839 22.895C56.6169 23.3955 55.714 23.7729 55.2857 24.0359C48.099 28.5032 40.9276 32.996 33.7718 37.5143C30.3996 39.6476 30.5508 42.434 33.6836 44.737C40.0542 49.415 48.0626 52.8248 55.4663 55.1532C62.0048 57.2102 70.6096 58.0372 76.1571 53.0072C77.9545 51.3744 78.555 49.5422 77.9797 47.1968C46.9259 27.9958 78.0049 46.9296 78.1813 46.9212Z" fill="#1D1518"/>
</g>
<path d="M23.4078 56.7625L23.7131 47.0173L27.5136 49.1062C28.0328 49.3915 28.4712 49.8493 28.8287 50.4795C29.1891 51.1113 29.3601 51.7216 29.3417 52.3104L29.3245 52.8585C29.3047 53.4913 29.1304 53.9015 28.8016 54.0891C28.4758 54.2783 27.9956 54.2415 27.361 53.9788C27.9929 54.3261 28.4593 54.8044 28.7601 55.4138C29.064 56.0214 29.207 56.6111 29.189 57.183L29.1719 57.7311C29.1535 58.3165 28.9492 58.7206 28.559 58.9432C28.1718 59.1641 27.7216 59.1335 27.2083 58.8514L23.4078 56.7625ZM25.4731 52.3939L26.4255 52.9173C26.6836 53.0592 26.9094 53.0749 27.103 52.9644C27.2997 52.8522 27.4026 52.649 27.4119 52.3546L27.4459 51.2684C27.4551 50.974 27.3681 50.6697 27.1848 50.3556C27.0045 50.0397 26.7854 49.8108 26.5273 49.6689L25.5749 49.1455L25.4731 52.3939ZM25.3377 56.7183L26.29 57.2418C26.5481 57.3836 26.774 57.3993 26.9676 57.2889C27.1641 57.1801 27.2669 56.9802 27.2761 56.6892L27.3101 55.603C27.3328 54.8789 27.0267 54.3423 26.3918 53.9934L25.4394 53.4699L25.3377 56.7183ZM30.9955 60.9329L31.3008 51.1877L33.1966 52.2297L32.8913 61.9749L30.9955 60.9329ZM36.9338 56.4832L38.8385 57.5301C39.3577 57.8154 39.796 58.2749 40.1534 58.9085C40.5138 59.5403 40.6848 60.1523 40.6662 60.7444L40.5645 63.9928C40.5461 64.5782 40.3433 64.9831 39.956 65.2073C39.5718 65.4299 39.1201 65.3984 38.6009 65.1131L36.6962 64.0662C36.177 63.7808 35.7371 63.3239 35.3766 62.6955C35.0191 62.0653 34.8496 61.4542 34.8682 60.862L34.9699 57.6136C34.9887 57.0147 35.1916 56.6064 35.5787 56.3889C35.9659 56.1681 36.4176 56.1995 36.9338 56.4832ZM36.8657 58.6556L36.764 61.904C36.7548 62.195 36.8389 62.4976 37.0162 62.8119C37.1964 63.1278 37.4185 63.3583 37.6826 63.5035C37.9466 63.6486 38.174 63.6651 38.3646 63.553C38.5582 63.4426 38.6595 63.2419 38.6687 62.9509L38.7704 59.7025C38.7798 59.4047 38.6928 59.097 38.5096 58.7795C38.3294 58.4636 38.1102 58.2347 37.8521 58.0928C37.591 57.9493 37.3637 57.9328 37.1701 58.0433C36.9765 58.1537 36.8751 58.3578 36.8657 58.6556ZM47.3015 64.3914L46.3581 63.8728C46.3066 63.108 46.0005 62.5714 45.4397 62.2632C45.1787 62.1197 44.9513 62.1032 44.7577 62.2136C44.5642 62.3241 44.4627 62.5282 44.4534 62.826L44.3516 66.0744C44.3425 66.3654 44.4266 66.668 44.6038 66.9823C44.7841 67.2982 45.0062 67.5287 45.2702 67.6738C45.831 67.982 46.1597 67.7978 46.2563 67.1212L47.1997 67.6398C47.0774 69.0389 46.4229 69.4123 45.2362 68.76L44.2839 68.2366C43.7647 67.9512 43.3248 67.4943 42.9642 66.8659C42.6067 66.2357 42.4372 65.6245 42.4558 65.0324L42.5576 61.784C42.5763 61.1851 42.7793 60.7768 43.1663 60.5593C43.5535 60.3384 44.0052 60.3699 44.5214 60.6536L45.4738 61.177C46.6664 61.8326 47.2757 62.904 47.3015 64.3914ZM49.0412 70.8513L49.3465 61.1061L51.2423 62.1481L51.0896 67.0207L54.0227 65.8758L55.9274 66.9226L51.8299 68.5325L55.6898 74.5056L53.7851 73.4588L51.0219 69.1829L50.937 71.8933L49.0412 70.8513Z" fill="black"/>
<defs>
<clipPath id="clip0_116_8">
<rect width="132" height="107" fill="white"/>
</clipPath>
</defs>
</svg>
